<svg
                  width="11"
                  height="13"
                  viewBox="0 0 11 13"
                  fill="none"
                  xmlns="http://www.w3.org/2000/svg">
                  <path
                    d="M10.6118 12.2772C10.5172 12.4816 10.3558 12.5402 10.137 12.5398C6.90698 12.5353 3.67765 12.5343 0.448939 12.5367C0.1183 12.5372 -0.00459599 12.4105 0.000130795 12.0787C0.0329819 9.8852 1.66868 7.97274 3.83166 7.60594C4.06772 7.56658 4.30636 7.54462 4.54564 7.54024C5.04455 7.53031 5.54346 7.53268 6.04238 7.53788C8.09545 7.55844 9.90676 8.95804 10.4383 10.9426C10.5113 11.2141 10.5399 11.4975 10.5893 11.7752C10.5952 11.8092 10.6028 11.843 10.6096 11.8768L10.6118 12.2772ZM9.89565 11.8239C9.8654 11.6464 9.842 11.4833 9.80915 11.3224C9.45464 9.59119 7.86408 8.26935 6.10052 8.24595C5.56639 8.23886 5.03179 8.2372 4.49766 8.24878C4.26556 8.25163 4.0344 8.27896 3.80803 8.33032C2.30562 8.68838 1.32859 9.61813 0.864423 11.0856C0.78974 11.3219 0.759252 11.5708 0.706312 11.8244L9.89565 11.8239Z"
                    fill="#004A91"
                  />
                  <path
                    d="M5.5641 0.460236C5.80493 0.51223 6.05214 0.544845 6.28541 0.619764C7.67059 1.06455 8.59468 2.42847 8.48336 3.8465C8.36401 5.35245 7.27945 6.54762 5.81415 6.78585C4.00545 7.07986 2.32578 5.79015 2.13884 3.96373C1.96182 2.23065 3.22742 0.665142 4.95458 0.480797C4.98523 0.475799 5.01553 0.468933 5.04534 0.460236L5.5641 0.460236ZM5.30413 1.16925C4.64857 1.17044 4.02015 1.43117 3.55631 1.89444C3.09246 2.3577 2.83095 2.9858 2.82895 3.64136C2.82753 5.00504 3.9362 6.11843 5.29869 6.12127C5.62838 6.12887 5.95627 6.07055 6.26312 5.94973C6.56996 5.82891 6.84959 5.64802 7.08559 5.41768C7.3216 5.18735 7.50922 4.91219 7.63746 4.60837C7.76569 4.30455 7.83196 3.97818 7.83237 3.6484C7.83278 3.31862 7.76732 2.99209 7.63984 2.68795C7.51236 2.38381 7.32542 2.10819 7.08999 1.87727C6.85456 1.64634 6.57538 1.46477 6.26883 1.34318C5.96229 1.2216 5.63454 1.16247 5.30484 1.16925H5.30413Z"
                    fill="#004A91"
                  />
                </svg>